<svg height="480pt" viewBox="-56 0 480 480.08952" width="480pt" xmlns="http://www.w3.org/2000/svg"><path d="m320.050781 307.195312c-.09375-6.933593 2.023438-13.71875 6.039063-19.371093 53.300781-72.824219 42.882812-174.164063-24.125-234.621094-67.003906-60.457031-168.878906-60.433594-235.859375.054687-66.976563 60.484376-77.351563 161.832032-24.015625 234.632813 3.984375 5.601563 6.082031 12.324219 5.992187 19.199219v101c.015625 8.484375 3.378907 16.621094 9.359375 22.640625 11.054688 10.808593 28.140625 12.472656 41.070313 4 8.941406-5.726563 14.128906-15.800781 13.601562-26.402344-.183593-17.199219 13.28125-31.453125 30.464844-32.253906 8.953125-.050781 17.550781 3.507812 23.847656 9.871093 6.300781 6.367188 9.769531 15 9.625 23.953126v28.800781c-.28125 16.820312 12.171875 31.148437 28.871094 33.214843 8.984375.882813 17.921875-2.070312 24.613281-8.132812 6.6875-6.058594 10.507813-14.664062 10.515625-23.691406v-76c-.035156-10.585938 8.214844-19.351563 18.78125-19.960938 5.660157-.097656 11.117188 2.113282 15.117188 6.117188s6.203125 9.464844 6.101562 15.125v22.71875c-.058593 10.601562 8.199219 19.390625 18.78125 20 5.667969.097656 11.128907-2.117188 15.132813-6.128906 4-4.015626 6.199218-9.484376 6.085937-15.152344zm-136 20.894532c-79.53125 0-144-64.472656-144-144 0-79.53125 64.46875-144 144-144 79.527344 0 144 64.46875 144 144 0 79.527344-64.472656 144-144 144zm0 0" fill="#9bc9ff"/><path d="m200.050781 184.089844c0 8.835937-7.164062 16-16 16-8.839843 0-16-7.164063-16-16 0-8.835938 7.160157-16 16-16 8.835938 0 16 7.164062 16 16zm0 0" fill="#9bc9ff"/><path d="m320.050781 456.089844c0 8.835937-7.164062 16-16 16-8.839843 0-16-7.164063-16-16 0-8.835938 7.160157-16 16-16 8.835938 0 16 7.164062 16 16zm0 0" fill="#9bc9ff"/><g fill="#1e81ce"><path d="m306.976562 47.289062c-38.792968-35.210937-90.867187-52.023437-142.925781-46.136718-65.324219 7.097656-121.894531 48.511718-148.390625 108.636718-26.5 60.125-18.898437 129.820313 19.941406 182.820313 2.96875 4.238281 4.527344 9.304687 4.449219 14.480469v101c.007813 10.628906 4.230469 20.816406 11.742188 28.335937 13.609375 13.410157 34.707031 15.578125 50.761719 5.214844 11.402343-7.152344 18.082031-19.878906 17.496093-33.328125-.167969-12.914062 9.941407-23.632812 22.847657-24.222656 6.28125-.222656 12.378906 2.136718 16.871093 6.535156 5.273438 5.027344 8.261719 11.988281 8.28125 19.273438v28.800781c-.226562 20.925781 15.332031 38.671875 36.109375 41.183593 1.273438.117188 2.535156.175782 3.800782.175782 10.617187.023437 20.808593-4.175782 28.328124-11.675782 7.519532-7.496093 11.75-17.675781 11.761719-28.292968v-76c0-3.183594 1.253907-6.234375 3.496094-8.496094 2.066406-2.085938 4.832031-3.335938 7.765625-3.503906 3.109375-.105469 6.128906 1.050781 8.375 3.199218 2.777344 2.617188 4.355469 6.257813 4.363281 10.074219v22.726563c.011719 7.421875 2.949219 14.542968 8.175781 19.816406 4.839844 4.835938 11.285157 7.726562 18.117188 8.128906 7.523438.441406 14.890625-2.28125 20.3125-7.511718 5.980469-5.644532 9.375-13.496094 9.394531-21.714844v-79.613282c-.082031-5.230468 1.492188-10.351562 4.496094-14.632812 55.808594-76.171875 44.75-182.25-25.570313-245.273438zm12.65625 235.808594c-5.039062 7.015625-7.695312 15.460938-7.582031 24.097656v79.613282c-.015625 3.8125-1.589843 7.449218-4.363281 10.066406-2.261719 2.136719-5.28125 3.285156-8.390625 3.199219-2.925781-.167969-5.683594-1.40625-7.75-3.480469-2.242187-2.261719-3.5-5.320312-3.496094-8.503906v-22.726563c-.019531-8.21875-3.417969-16.066406-9.394531-21.707031-5.433594-5.203125-12.78125-7.921875-20.296875-7.511719-6.835937.398438-13.289063 3.289063-18.132813 8.128907-5.226562 5.273437-8.164062 12.394531-8.175781 19.816406v76c0 6.785156-2.867187 13.253906-7.898437 17.804687s-11.753906 6.761719-18.503906 6.082031c-12.578126-1.695312-21.875-12.566406-21.597657-25.253906v-28.800781c-.039062-11.648437-4.820312-22.777344-13.242187-30.824219-7.183594-7.007812-16.808594-10.953125-26.847656-11.007812-.609376 0-1.214844 0-1.824219.039062-21.480469 1.007813-38.3125 18.832032-38.085938 40.335938.484375 7.738281-3.195312 15.144531-9.65625 19.425781-9.769531 6.613281-22.839843 5.453125-31.289062-2.777344-4.511719-4.519531-7.046875-10.640625-7.054688-17.023437v-101c.109375-8.578125-2.53125-16.964844-7.539062-23.929688-50.894531-69.492187-40.984375-166.222656 22.945312-223.953125 63.929688-57.730469 161.167969-57.753906 225.125-.050781 63.960938 57.699219 73.914063 154.421875 23.050781 223.941406zm0 0"/><path d="m184.050781 32.089844c-83.949219 0-152 68.050781-152 152 0 83.945312 68.050781 152 152 152 83.945313 0 152-68.054688 152-152-.09375-83.910156-68.09375-151.90625-152-152zm8 287.589844v-23.589844c0-4.417969-3.582031-8-8-8-4.421875 0-8 3.582031-8 8v23.589844c-68.695312-4.105469-123.484375-58.898438-127.59375-127.589844h23.59375c4.417969 0 8-3.582032 8-8 0-4.417969-3.582031-8-8-8h-23.59375c4.109375-68.695313 58.898438-123.484375 127.59375-127.59375v23.59375c0 4.417968 3.578125 8 8 8 4.417969 0 8-3.582032 8-8v-23.59375c68.691407 4.109375 123.480469 58.898437 127.589844 127.59375h-23.589844c-4.421875 0-8 3.582031-8 8 0 4.417968 3.578125 8 8 8h23.589844c-4.109375 68.691406-58.898437 123.484375-127.589844 127.589844zm0 0"/><path d="m205.648438 194.363281c4.804687-10.0625 2.027343-22.105469-6.695313-29.046875s-21.082031-6.941406-29.808594 0c-8.722656 6.941406-11.5 18.984375-6.695312 29.046875l-40.640625 40.636719c-2.078125 2.011719-2.914063 4.984375-2.179688 7.78125.730469 2.796875 2.914063 4.980469 5.710938 5.714844 2.796875.730468 5.773437-.101563 7.78125-2.183594l40.640625-40.640625c6.472656 3.199219 14.070312 3.199219 20.542969 0l63.265624 63.265625c3.136719 3.03125 8.128907 2.988281 11.214844-.097656 3.085938-3.085938 3.128906-8.074219.097656-11.214844zm-27.238282-4.617187c-3.125-3.125-3.125-8.191406-.003906-11.316406 3.125-3.121094 8.191406-3.121094 11.316406 0 3.125 3.125 3.125 8.191406 0 11.316406-1.503906 1.503906-3.539062 2.351562-5.664062 2.351562s-4.164063-.847656-5.664063-2.351562zm0 0"/><path d="m304.050781 432.089844c-13.257812 0-24 10.746094-24 24s10.742188 24 24 24c13.253907 0 24-10.746094 24-24s-10.746093-24-24-24zm0 32c-4.421875 0-8-3.582032-8-8 0-4.417969 3.578125-8 8-8 4.417969 0 8 3.582031 8 8 0 4.417968-3.582031 8-8 8zm0 0"/></g></svg>