<?xml version="1.0" encoding="iso-8859-1"?>
<!-- Generator: Adobe Illustrator 19.0.0, SVG Export Plug-In . SVG Version: 6.00 Build 0)  -->
<svg version="1.1" id="Capa_1" xmlns="http://www.w3.org/2000/svg" xmlns:xlink="http://www.w3.org/1999/xlink" x="0px" y="0px"
	 viewBox="0 0 512 512" style="enable-background:new 0 0 512 512;" xml:space="preserve">
<path style="fill:#303C42;" d="M320,64c-105.865,0-192,86.135-192,192s86.135,192,192,192s192-86.135,192-192S425.865,64,320,64z"/>
<circle style="fill:#E53935;" cx="320" cy="256" r="170.667"/>
<path style="opacity:0.1;enable-background:new    ;" d="M165.333,272c0-94.104,76.563-170.667,170.667-170.667
	c42.987,0,82.201,16.099,112.241,42.426C416.936,108.038,371.117,85.333,320,85.333c-94.104,0-170.667,76.563-170.667,170.667
	c0,51.117,22.704,96.936,58.426,128.241C181.432,354.201,165.333,314.987,165.333,272z"/>
<g>
	<path style="fill:#303C42;" d="M21.333,256c0-40.365,14.448-79.583,40.677-110.427c3.813-4.479,3.271-11.219-1.219-15.031
		c-4.458-3.802-11.219-3.292-15.031,1.219C16.25,166.448,0,210.573,0,256s16.25,89.552,45.76,124.24
		c2.115,2.49,5.115,3.76,8.125,3.76c2.448,0,4.906-0.833,6.906-2.542c4.49-3.813,5.031-10.552,1.219-15.031
		C35.781,335.583,21.333,296.365,21.333,256z"/>
	<path style="fill:#303C42;" d="M85.333,256c0-40.365,14.448-79.583,40.677-110.427c3.813-4.479,3.271-11.219-1.219-15.031
		c-4.469-3.802-11.229-3.292-15.031,1.219C80.25,166.448,64,210.573,64,256s16.25,89.552,45.76,124.24
		c2.115,2.49,5.115,3.76,8.125,3.76c2.448,0,4.906-0.833,6.906-2.542c4.49-3.813,5.031-10.552,1.219-15.031
		C99.781,335.583,85.333,296.365,85.333,256z"/>
	<path style="fill:#303C42;" d="M340.281,261.198c0.441-1.707,1.052-3.355,1.052-5.198c0-7.792-4.409-14.329-10.667-18.053v-99.28
		c0-5.896-4.771-10.667-10.667-10.667c-5.896,0-10.667,4.771-10.667,10.667v99.28c-6.258,3.724-10.667,10.262-10.667,18.053
		c0,11.76,9.573,21.333,21.333,21.333c1.842,0,3.491-0.611,5.198-1.052l51.26,51.26c2.083,2.083,4.813,3.125,7.542,3.125
		c2.729,0,5.458-1.042,7.542-3.125c4.167-4.167,4.167-10.917,0-15.083L340.281,261.198z"/>
</g>
<linearGradient id="SVGID_1_" gradientUnits="userSpaceOnUse" x1="-31.426" y1="640.3895" x2="-31.4258" y2="640.3895" gradientTransform="matrix(21.3333 0 0 -21.3333 996.3334 13791.667)">
	<stop  offset="0" style="stop-color:#000000;stop-opacity:0.1"/>
	<stop  offset="1" style="stop-color:#000000;stop-opacity:0"/>
</linearGradient>
<polygon style="fill:url(#SVGID_1_);" points="325.915,130.025 325.913,130.022 325.913,130.022 "/>
<linearGradient id="SVGID_2_" gradientUnits="userSpaceOnUse" x1="-33.1918" y1="638.3679" x2="-24.8565" y2="630.0325" gradientTransform="matrix(21.3333 0 0 -21.3333 996.3334 13791.667)">
	<stop  offset="0" style="stop-color:#000000;stop-opacity:0.1"/>
	<stop  offset="1" style="stop-color:#000000;stop-opacity:0"/>
</linearGradient>
<path style="fill:url(#SVGID_2_);" d="M328.642,132.751c1.177,1.715,2.025,3.676,2.025,5.915v99.28
	c6.258,3.724,10.667,10.262,10.667,18.053c0,1.842-0.611,3.491-1.052,5.198l51.26,51.26c4.167,4.167,4.167,10.917,0,15.083
	c-2.083,2.083-4.813,3.125-7.542,3.125c-2.729,0-5.458-1.042-7.542-3.125l-51.26-51.26c-1.707,0.441-3.355,1.052-5.198,1.052
	c-4.704,0-8.835-1.836-12.366-4.427l-0.049,0.389l117.159,117.158c31.214-24.371,53.831-59.236,62.254-99.346L328.642,132.751z"/>
<linearGradient id="SVGID_3_" gradientUnits="userSpaceOnUse" x1="-45.1564" y1="639.7886" x2="-23.9183" y2="629.8845" gradientTransform="matrix(21.3333 0 0 -21.3333 996.3334 13791.667)">
	<stop  offset="0" style="stop-color:#FFFFFF;stop-opacity:0.2"/>
	<stop  offset="1" style="stop-color:#FFFFFF;stop-opacity:0"/>
</linearGradient>
<path style="fill:url(#SVGID_3_);" d="M320,64c-105.865,0-192,86.135-192,192s86.135,192,192,192s192-86.135,192-192
	S425.865,64,320,64z M21.333,256c0-40.365,14.448-79.583,40.677-110.427c3.813-4.479,3.271-11.219-1.219-15.031
	c-4.458-3.802-11.219-3.292-15.031,1.219C16.25,166.448,0,210.573,0,256s16.25,89.552,45.76,124.24
	c2.115,2.49,5.115,3.76,8.125,3.76c2.448,0,4.906-0.833,6.906-2.542c4.49-3.813,5.031-10.552,1.219-15.031
	C35.781,335.583,21.333,296.365,21.333,256z M85.333,256c0-40.365,14.448-79.583,40.677-110.427
	c3.813-4.479,3.271-11.219-1.219-15.031c-4.469-3.802-11.229-3.292-15.031,1.219C80.25,166.448,64,210.573,64,256
	s16.25,89.552,45.76,124.24c2.115,2.49,5.115,3.76,8.125,3.76c2.448,0,4.906-0.833,6.906-2.542
	c4.49-3.813,5.031-10.552,1.219-15.031C99.781,335.583,85.333,296.365,85.333,256z"/>
<g>
</g>
<g>
</g>
<g>
</g>
<g>
</g>
<g>
</g>
<g>
</g>
<g>
</g>
<g>
</g>
<g>
</g>
<g>
</g>
<g>
</g>
<g>
</g>
<g>
</g>
<g>
</g>
<g>
</g>
</svg>
